<svg xmlns="http://www.w3.org/2000/svg" viewBox="0 0 200 200">
  <defs>
    <style>
      .dark { fill: #054109; }
      .text { fill: #fff; }
      .cls-3 { fill: #0b5d18; }
    </style>
  </defs>

  <rect class="dark" x="0" y="0" width="200" height="200"/>
  <polygon class="light" points="0 200 200 0 200 200 0 200"/>
  <polygon class="dark" points="40 200 200 40 200 200 40 200"/>
  <polygon class="light" points="80 200 200 80 200 200 80 200"/>
  <polygon class="dark" points="120 200 200 120 200 200 120 200"/>
  <polygon class="light" points="160 200 200 160 200 200 160 200"/>
  <path class="text" d="M105.1,166.2h-8.7v-96.2c0-2.5,0-5,0-7.3,0-2.3,0-4.7.1-7.1,0-2.4.1-5,.3-7.6-.9,1.4-2,2.7-3.2,3.9s-2.7,2.6-4.4,4.1l-12.9,12-5.2-5.5,26.6-24.8h7.3v128.5Z"/>

</svg>



<!-- winklenmand -->
 <svg xmlns="http://www.w3.org/2000/svg" width="38" height="25" viewBox="0 0 38 25" fill="none" class="icon icon-cart-empty">
  <g clip-path="url(#clip0_3821_3383)">
    <path d="M28.569 23.2811H9.44341C8.57406 23.2811 7.81339 22.7377 7.51998 21.9119L4.05348 6.88308L2.13005 6.36147L1.27157 3.88384C0.815168 2.56896 1.79318 1.18887 3.195 1.18887H34.4262C35.7954 1.18887 36.7734 2.52549 36.3605 3.82951L35.5346 6.4484L33.6655 6.85048L30.5033 21.8684C30.2316 22.716 29.4492 23.2811 28.569 23.2811Z" stroke="currentColor" stroke-width="2.5" stroke-linecap="round" stroke-linejoin="round"></path>
    <path d="M13.0947 1.54756L15.0508 23.0095" stroke="currentColor" stroke-width="2.5" stroke-linecap="round" stroke-linejoin="round"></path>
    <path d="M25.0044 1.54756L23.0483 23.0095" stroke="currentColor" stroke-width="2.5" stroke-linecap="round" stroke-linejoin="round"></path>
    <path d="M3.521 6.99182L33.6546 6.85056" stroke="currentColor" stroke-width="2.5" stroke-linecap="round" stroke-linejoin="round"></path>
    <path d="M6.82422 14.6095H31.0463" stroke="currentColor" stroke-width="2.5" stroke-linecap="round" stroke-linejoin="round"></path>
  </g>
  <defs>
    <clipPath id="clip0_3821_3383">
      <rect width="37.61" height="24.4177" fill="white" transform="translate(0 0.0261536)"></rect>
    </clipPath>
  </defs>
</svg>   



<!-- hamburgermenu -->
<svg xmlns="http://www.w3.org/2000/svg" aria-hidden="true" focusable="false" class="icon icon-hamburger" fill="none" viewBox="0 0 18 16">
  <path d="M1 .5a.5.5 0 100 1h15.71a.5.5 0 000-1H1zM.5 8a.5.5 0 01.5-.5h15.71a.5.5 0 010 1H1A.5.5 0 01.5 8zm0 7a.5.5 0 01.5-.5h15.71a.5.5 0 010 1H1a.5.5 0 01-.5-.5z" fill="currentColor">
</path></svg>

<!-- sluit hamburgermenu -->
<svg xmlns="http://www.w3.org/2000/svg" width="14" height="13" viewBox="0 0 14 13" fill="none" class="icon icon-close">
  <path d="M1.75 1.25L12.25 11.75" stroke="currentColor" stroke-width="2.5" stroke-linecap="round" stroke-linejoin="round"></path>
  <path d="M12.25 1.25L1.75 11.75" stroke="currentColor" stroke-width="2.5" stroke-linecap="round" stroke-linejoin="round"></path>
</svg>


<!-- pijltje bij een button -->
<svg xmlns="http://www.w3.org/2000/svg" width="24" height="28" viewBox="0 0 24 28" fill="none">
  <path d="M3 17.4023H21M21 17.4023L12.5 8.90228M21 17.4023L12.5 25.9023" stroke="currentColor" stroke-width="2.5" stroke-linecap="round" stroke-linejoin="round"></path>
</svg>


<!-- tiktok -->
<svg xmlns="http://www.w3.org/2000/svg" width="64" height="64" viewBox="0 0 64 64" fill="none" class="icon icon-tiktok">
  <rect width="64" height="64" rx="8.86864" fill="#FFFEF6"></rect>
  <g transform="translate(22 22)">
    <path d="M29.7795 1.22729V18.12C29.7795 23.9509 25.0525 28.6779 19.2216 28.6779H2.32886C-3.49794 28.6779 -8.771 23.9509 -8.771 18.12V1.22729C-8.771 -4.60362 -3.49794 -9.33057 2.32886 -9.33057H19.2216C25.0525 -9.33057 29.7795 -4.60362 29.7795 1.22729Z" stroke="currentColor" stroke-width="3.16737" stroke-linecap="round" stroke-linejoin="round"></path>
    <path d="M6.552 9.67358C3.05348 9.67358 0.217285 12.5097 0.217285 16.0084C0.217285 19.5071 3.05348 22.3431 6.552 22.3431C10.0507 22.3431 12.8868 19.5071 12.8868 16.0084V-3.99585C13.5906 -1.88428 16.2653 2.33894 21.3331 2.33894" stroke="currentColor" stroke-width="3.16737" stroke-linecap="round" stroke-linejoin="round"></path>
  </g>
</svg>

<!-- linkedin -->
<svg xmlns="http://www.w3.org/2000/svg" width="64" height="64" viewBox="0 0 64 64" fill="none" class="icon icon-linkedin">
  <rect width="64" height="64" rx="8.86864" fill="#FFFEF6"></rect>
  <g transform="translate(23 23)">
    <path d="M26.3805 0.650116V16.6982C26.3805 22.2375 21.8899 26.7282 16.3505 26.7282H0.30249C-5.23694 26.7282 -9.72754 22.2375 -9.72754 16.6982V0.650116C-9.72754 -4.88927 -5.23694 -9.37988 0.30249 -9.37988H16.3505C21.8899 -9.37988 26.3805 -4.88927 26.3805 0.650116Z" stroke="currentColor" stroke-width="3.16737" stroke-linecap="round" stroke-linejoin="round"></path>
    <path d="M-1.70358 18.7044V11.6834V4.6624" stroke="currentColor" stroke-width="3.16737" stroke-linecap="round" stroke-linejoin="round"></path>
    <path d="M6.31982 18.7044V12.1849M6.31982 12.1849V4.6624M6.31982 12.1849C6.31982 4.6624 18.3558 4.6624 18.3558 12.1849V18.7044" stroke="currentColor" stroke-width="3.16737" stroke-linecap="round" stroke-linejoin="round"></path>
    <path d="M-1.70358 -3.33594L-1.68358 -3.35825" stroke="currentColor" stroke-width="3.16737" stroke-linecap="round" stroke-linejoin="round"></path>
  </g>
</svg>

<!-- logo footer -->
<svg xmlns="http://www.w3.org/2000/svg" width="250" height="132" viewBox="0 0 1030 545.4">
  <defs>
    <style>
      .cls-1{fill:currentColor;stroke-width:0px;}
    </style>
  </defs>
  <path class="cls-1" d="m63.65,469.23c-2.59,12.78-9.27,52.87-11.02,62.65-1.25-.08-3.01-.08-4.85-.08-2.75,0-4.84,0-6.01.08-.84-5.51-3.34-23.14-5.18-36.5-.75-5.35-1.42-11.53-1.92-16.37h-.25c-.5,4.93-1.17,11.28-2,16.45-2.09,13.62-4.76,30.24-5.76,36.42-1.59-.08-3.68-.08-5.51-.08-2.34,0-3.84,0-4.85.08-2.09-10.36-8.1-50.03-10.94-62.65h9.86c.42,5.43,3.34,26.15,5.43,41.01.75,5.51,1.25,10.19,1.59,13.7h.42c.42-3.59,1.08-8.27,1.83-13.7,1.92-14.2,5.01-34.33,5.6-41.01h10.77c.67,6.35,3.18,26.31,5.35,41.18.83,5.68,1.34,10.27,1.75,13.78h.42c.34-3.51.92-8.1,1.67-13.7,1.92-14.45,4.85-34.83,5.51-41.26h8.1Z"></path>
  <path class="cls-1" d="m89.7,524.61c-1.59,5.35-5.6,7.93-11.61,7.93-7.1,0-11.19-3.59-11.19-14.62s4.93-14.79,14.7-14.79c3.26,0,6.27.25,8.35.84.08-3.18.08-6.35.08-9.19,0-4.59-2.01-7.77-6.68-7.77s-7.27,2.67-7.02,11.44c-1-.08-2.26-.08-3.59-.08-1.67,0-3.26,0-4.51.16-.67-11.69,3.84-18.96,15.03-18.96,10.61,0,15.12,5.93,15.12,14.95,0,8.35-.25,14.28-.25,21.47,0,6.1.25,13.7.84,15.87h-6.94c-1.67,0-2-.34-2-2.26,0-1.42.08-3.26.17-4.93l-.5-.08Zm.17-9.77v-6.43c-2.09-.42-4.51-.58-7.1-.58-5.18,0-7.68,2.01-7.68,8.85,0,7.19,1.75,9.19,6.18,9.19,5.6,0,8.6-4.68,8.6-11.03Z"></path>
  <path class="cls-1" d="m129.45,493.62c0-5.26-1.84-7.27-7.02-7.27s-7.18,1.83-7.18,6.01c0,4.43,1.75,7.43,9.27,10.03,9.44,3.26,13.53,8.35,13.53,16.79s-4.68,13.53-15.37,13.53c-11.87,0-15.87-5.01-15.87-14.2,0-1.67.09-2.75.09-3.84.92.08,2.34.17,4.09.17,1.42,0,2.76,0,3.76-.09,0,1.17-.08,2.34-.08,3.09,0,5.68,2.42,7.85,8.02,7.85,5.18,0,7.18-2.01,7.18-6.6s-2.26-7.6-9.6-10.19c-9.86-3.34-13.12-8.69-13.12-16.62,0-8.69,5.35-12.78,15.37-12.78,10.61,0,14.87,4.34,14.87,13.53,0,1.5-.09,2.51-.17,4.09-1.09-.08-2.59-.08-4.1-.08h-3.67v-3.43Z"></path>
  <path class="cls-1" d="m166.93,480.34h8.52c-.17,6.76-.17,12.53-.17,21.38,0,6.93.17,15.37.17,27.06,0,9.19-3.18,14.2-11.44,14.2-2.42,0-4.43-.42-6.18-1.17.25-1.5.67-6.51.84-8.02,1.17.67,2.67,1.17,4.43,1.17,2.84,0,4.26-1.75,4.26-6.1,0-25.14-.16-41.77-.42-48.53Zm4.26-4.59c-4.51,0-5.51-1.75-5.51-3.67,0-2.17,1.17-3.59,5.51-3.59s5.43,1.42,5.43,3.59c0,1.92-1.09,3.67-5.43,3.67Z"></path>
  <path class="cls-1" d="m191.73,508.57c.17,13.87,3.26,17.46,8.94,17.46s7.1-3.43,7.1-11.44c1.09.09,2.26.09,3.85.09,1.5,0,2.67,0,3.67-.09.17,11.53-2.67,18.13-14.7,18.13-10.44,0-16.79-6.18-16.79-26.31s6.6-26.9,16.96-26.9,14.53,6.85,14.53,18.79c0,3.67-.09,7.85-.17,10.28h-23.39Zm.09-5.26c4.68.09,11.61.09,15.79,0,.08-1.34.16-3,.16-5.35,0-8.44-2.17-11.86-7.27-11.86s-8.19,3.67-8.68,17.21Z"></path>
  <path class="cls-1" d="m288.86,480.34c-2.34,11.61-7.94,43.77-9.44,51.54-1.17,0-2.75-.08-4.51-.08-2.59,0-4.51,0-5.51.08-.92-4.68-3.01-19.13-4.76-30.91-.67-4.51-1.17-8.68-1.59-12.11h-.08c-.5,3.51-1,7.93-1.75,12.2-1.75,11.94-4.18,25.72-5.1,30.82-1.25,0-3.18-.08-4.84-.08-2.34,0-3.68.08-4.68.08-1.67-8.27-6.85-41.1-9.27-51.54h8.85c.42,4.18,2.84,19.8,4.51,31.41.75,4.92,1.17,9.02,1.42,12.11h.34c.34-3.09.83-7.27,1.59-12.2,1.75-10.94,4.34-26.39,4.93-31.32,1.34,0,3.67.09,4.93.09,1.5,0,3.51-.09,4.93-.09.5,4.76,2.75,20.05,4.59,31.57.75,4.85,1.17,8.94,1.5,11.95h.34c.34-3.01.75-7.1,1.5-11.95,1.67-11.28,4.18-26.64,4.68-31.57h7.43Z"></path>
  <path class="cls-1" d="m300.12,508.57c.17,13.87,3.26,17.46,8.94,17.46s7.1-3.43,7.1-11.44c1.09.09,2.26.09,3.85.09,1.5,0,2.67,0,3.67-.09.17,11.53-2.67,18.13-14.7,18.13-10.44,0-16.79-6.18-16.79-26.31s6.6-26.9,16.96-26.9,14.53,6.85,14.53,18.79c0,3.67-.09,7.85-.17,10.28h-23.39Zm.09-5.26c4.68.09,11.61.09,15.79,0,.08-1.34.16-3,.16-5.35,0-8.44-2.17-11.86-7.27-11.86s-8.19,3.67-8.68,17.21Z"></path>
  <path class="cls-1" d="m340.71,489.53c1.75-7.1,5.26-9.77,10.44-9.77,1.84,0,3.59.42,5.1.92-.42,2.09-.83,5.93-1,8.52-1.42-.58-3.09-.92-4.76-.92-5.68.08-8.6,3.17-8.6,13.11s0,22.97.25,30.49h-8.94c.09-7.27.09-15.2.09-26.48,0-10.69,0-17.96-.09-25.06h7.19c-.08,2.51-.17,5.51-.25,9.11l.58.08Z"></path>
  <path class="cls-1" d="m366.84,508.57c.17,13.87,3.26,17.46,8.94,17.46s7.1-3.43,7.1-11.44c1.09.09,2.26.09,3.85.09,1.5,0,2.67,0,3.67-.09.17,11.53-2.67,18.13-14.7,18.13-10.44,0-16.79-6.18-16.79-26.31s6.6-26.9,16.96-26.9,14.53,6.85,14.53,18.79c0,3.67-.09,7.85-.17,10.28h-23.39Zm.09-5.26c4.68.09,11.61.09,15.79,0,.08-1.34.16-3,.16-5.35,0-8.44-2.17-11.86-7.27-11.86s-8.19,3.67-8.68,17.21Z"></path>
  <path class="cls-1" d="m399.82,531.88c.17-9.27.17-21.13.17-32.49,0-12.36,0-22.38-.17-32.16h8.6c-.17,9.27-.17,18.88-.17,32.5,0,12.45,0,22.3.17,32.16h-8.6Z"></path>
  <path class="cls-1" d="m450.52,467.23c-.17,9.19-.17,19.8-.17,36.84,0,11.95,0,20.72.17,27.82h-8.6c0-1.42.09-2.84.09-4.51,0-1.17,0-2.25.08-3.34l-.5-.17c-1.75,4.93-5.51,8.68-11.11,8.68-8.19,0-13.61-5.93-13.61-25.98s6.01-26.98,14.7-26.98c4.68,0,8.02,1.84,10.19,5.51l.34-.08c-.08-2.51-.17-4.34-.17-6.85,0-4.18.09-7.27-.08-10.95h8.68Zm-8.52,22.05c-2.09-1.59-4.93-2.51-7.94-2.51-6.02,0-9.11,4.26-9.11,19.79s3.09,18.96,8.27,18.96c4.76,0,8.77-3.51,8.77-11.19v-25.06Z"></path>
  <path class="cls-1" d="m498.36,493.62c0-5.26-1.84-7.27-7.02-7.27s-7.18,1.83-7.18,6.01c0,4.43,1.75,7.43,9.27,10.03,9.44,3.26,13.53,8.35,13.53,16.79s-4.68,13.53-15.37,13.53c-11.87,0-15.87-5.01-15.87-14.2,0-1.67.09-2.75.09-3.84.92.08,2.34.17,4.09.17,1.42,0,2.76,0,3.76-.09,0,1.17-.08,2.34-.08,3.09,0,5.68,2.42,7.85,8.02,7.85,5.18,0,7.18-2.01,7.18-6.6s-2.26-7.6-9.6-10.19c-9.86-3.34-13.12-8.69-13.12-16.62,0-8.69,5.35-12.78,15.37-12.78,10.61,0,14.87,4.34,14.87,13.53,0,1.5-.09,2.51-.17,4.09-1.09-.08-2.59-.08-4.1-.08h-3.67v-3.43Z"></path>
  <path class="cls-1" d="m546.55,514.92c0,10.52-3.68,17.79-16.04,17.79-10.86,0-17.13-7.1-17.13-26.73s6.18-26.56,17.54-26.56c10.02,0,15.45,5.18,15.45,17.88,0,1.25,0,2.17-.09,3.43-1,0-2.42-.09-3.92-.09-1.42,0-2.84.09-3.84.09,0-1.17.08-2.34.08-3.18,0-7.85-2.34-10.44-7.77-10.44-5.84,0-9.27,3.51-9.27,18.88s3.34,19.13,9.27,19.13c5.51,0,7.77-3.51,7.77-10.19v-3.17c1.09.08,2.42.08,3.84.08,1.5,0,3.01,0,4.1-.08v3.17Z"></path>
  <path class="cls-1" d="m579.11,531.88c.17-9.36.25-20.72.25-36.5,0-5.68-1.92-8.35-6.85-8.35s-9.02,3.18-9.02,10.77c0,21.89.09,27.9.17,34.08h-8.6c.17-7.68.17-14.95.17-27.06,0-14.53-.09-29.07-.17-37.59h8.68c-.08,4.51-.08,8.44-.08,12.87-.08,2.42-.08,4.43-.17,6.76h.42c2.17-5.01,6.35-7.27,12.2-7.27,7.35,0,11.61,4.34,11.61,13.53,0,10.02-.08,14.53-.08,20.55,0,6.76,0,12.45.16,18.21h-8.68Z"></path>
  <path class="cls-1" d="m613.01,532.71c-10.94,0-17.29-8.27-17.29-27.4s6.77-25.81,17.29-25.81,17.37,6.68,17.37,25.81-6.43,27.4-17.37,27.4Zm0-45.69c-5.43,0-9.11,3.84-9.11,18.71s3.51,19.46,9.11,19.46,9.11-4.59,9.11-19.46-3.59-18.71-9.11-18.71Z"></path>
  <path class="cls-1" d="m662.78,531.88c.17-9.19.25-20.55.25-36.33,0-5.68-1.83-8.6-6.93-8.6s-8.94,3.17-8.94,10.44c0,21.97.09,28.32.17,34.5h-8.6c.17-7.19.17-14.12.17-25.23s0-19.8-.17-26.31h8.6c-.08,2.42-.08,4.26-.17,6.43l.5.08c2.17-4.93,6.43-7.18,12.11-7.18,7.6,0,11.61,4.43,11.61,14.2s-.08,14.28-.08,20.21c0,6.6,0,12.11.16,17.79h-8.68Z"></path>
  <path class="cls-1" d="m687.41,508.57c.17,13.87,3.26,17.46,8.94,17.46s7.1-3.43,7.1-11.44c1.09.09,2.26.09,3.85.09,1.5,0,2.67,0,3.67-.09.17,11.53-2.67,18.13-14.7,18.13-10.44,0-16.79-6.18-16.79-26.31s6.6-26.9,16.96-26.9,14.53,6.85,14.53,18.79c0,3.67-.09,7.85-.17,10.28h-23.39Zm.09-5.26c4.68.09,11.61.09,15.79,0,.08-1.34.16-3,.16-5.35,0-8.44-2.17-11.86-7.27-11.86s-8.18,3.67-8.68,17.21Z"></path>
  <path class="cls-1" d="m727.99,489.53c1.75-7.1,5.26-9.77,10.44-9.77,1.84,0,3.59.42,5.1.92-.42,2.09-.83,5.93-1,8.52-1.42-.58-3.09-.92-4.76-.92-5.68.08-8.6,3.17-8.6,13.11s0,22.97.25,30.49h-8.94c.09-7.27.09-15.2.09-26.48,0-10.69,0-17.96-.09-25.06h7.19c-.08,2.51-.17,5.51-.25,9.11l.58.08Z"></path>
  <path class="cls-1" d="m140.84,201.6c-12.08-10.51-28.06-16.52-43.83-16.52h-17.8c-9.59,0-25.69-1.91-25.69-14.65,0-10.96,9.97-18.93,23.71-18.93h40.37c26.02,0,41.55-16.27,41.55-43.51,0-2.74-2.22-4.97-4.97-4.97h-78.1c-42.7,0-71.37,34.85-71.37,67.41,0,35.22,31.34,62.8,71.37,62.8h17.31c11.81,0,19.76,7.2,19.76,17.94,0,9.66-6.9,19.43-20.09,19.43h-43.67c-24.08,0-43.69,19.52-43.69,43.51,0,2.74,2.22,4.97,4.97,4.97h79.59c44.69,0,72.36-35.25,72.36-67.91,0-25.34-11.84-40.94-21.77-49.57h-.01Z"></path>
  <path class="cls-1" d="m303.45,178.51v3.76c0,2.74-2.22,4.97-4.97,4.97h-55.2c-2.91,0-5.22-2.54-4.95-5.44,2.31-24.56,13.42-29.95,29.19-29.95h11.37c17.19,0,24.54,7.98,24.54,26.68h.01Zm-23.88-76.31h-12.03c-44.36,0-79.12,39.52-79.12,89.98v52.4c0,45.75,31.57,75.32,80.44,75.32h79.09c2.74,0,4.97-2.22,4.97-4.97,0-25.82-18.5-43.84-45.01-43.84h-39.05c-14.97,0-30.97-6.96-30.97-26.52v-7.06c0-2.74,2.22-4.97,4.97-4.97h70.49c23.67,0,39.57-14.77,39.57-36.77v-17.31c0-42.08-32.91-76.31-73.35-76.31v.04Z"></path>
  <path class="cls-1" d="m461.07,151h11.37c17.21,0,24.54,7.98,24.54,26.68v3.76c0,2.74-2.22,4.97-4.97,4.97h-55.2c-2.91,0-5.22-2.54-4.95-5.44,2.31-24.56,13.42-29.95,29.19-29.95h.01Zm12.03-49.63h-12.03c-44.36,0-79.11,39.52-79.11,89.98v52.4c0,45.75,31.57,75.32,80.43,75.32h79.11c2.74,0,4.97-2.22,4.97-4.97,0-25.82-18.5-43.84-45.01-43.84h-39.05c-14.97,0-30.97-6.96-30.97-26.51v-7.06c0-2.74,2.22-4.97,4.97-4.97h70.49c23.67,0,39.57-14.77,39.57-36.77v-17.31c0-42.08-32.91-76.31-73.35-76.31v.03Z"></path>
  <path class="cls-1" d="m628.17,183.45c0-22.63,10.53-34.1,31.29-34.1s31.29,9.26,31.29,29.15v62.79c0,22.85-6.89,29.81-29.48,29.81h-28.14c-2.74,0-4.97-2.22-4.97-4.97v-82.69h.01Zm112.06,58.17v-63.12c0-44.83-33.14-76.15-80.6-76.15-15.7,0-29.92,3.2-41.6,9.3-1.69.89-3.76.93-5.32-.16-7.38-5.09-17.11-7.66-29.03-7.66-2.74,0-4.97,2.22-4.97,4.97v245.21c0,23.69,14.78,38.42,38.58,38.42h5.93c2.74,0,4.97-2.22,4.97-4.97v-62.59c0-2.74,2.22-4.97,4.97-4.97h28.65c46.93,0,78.46-31.46,78.46-78.29h-.01Z"></path>
  <path class="cls-1" d="m915.67,186.39c-2.91,0-5.22-2.54-4.95-5.44,2.31-24.56,13.42-29.95,29.19-29.95h11.37c17.21,0,24.54,7.98,24.54,26.68v3.76c0,2.74-2.22,4.97-4.97,4.97h-55.2.01Zm70.05,45.35c23.67,0,39.57-14.77,39.57-36.77v-17.31c0-42.08-32.91-76.31-73.35-76.31h-12.03c-44.36,0-79.11,39.52-79.11,89.98v52.4c0,45.75,31.57,75.32,80.43,75.32h79.09c2.74,0,4.97-2.22,4.97-4.97,0-25.82-18.5-43.84-45.01-43.84h-39.05c-14.97,0-30.97-6.96-30.97-26.51v-7.06c0-2.74,2.22-4.97,4.97-4.97h70.49v.03Z"></path>
  <path class="cls-1" d="m781.25,105.34c-2.74,0-4.97,2.22-4.97,4.97l.33,216.21c0,12.47-5.24,18.28-16.48,18.28-22.26,0-37.2,17.65-37.2,43.92,0,2.74,2.22,4.97,4.97,4.97h32.25c38.71,0,65.69-35.39,65.69-67.15v-183.47c0-25.01-15-37.7-44.56-37.7h-.03Z"></path>
  <path class="cls-1" d="m781.09,4.32c-2.74,0-4.97,2.22-4.97,4.97v31.43c0,15.73,5.34,31.8,44.89,31.8,2.74,0,4.97-2.22,4.97-4.97v-31.76c0-19.42-17.21-31.47-44.89-31.47Z"></path>
</svg>


<!-- pijltje -->
<svg xmlns="http://www.w3.org/2000/svg" width="24" height="24" viewBox="0 0 24 24" fill="none">
  <path d="M3 12H21H3ZM21 12L12.5 3.5L21 12ZM21 12L12.5 20.5L21 12Z" fill="currentColor"></path>
  <path d="M3 12H21M21 12L12.5 3.5M21 12L12.5 20.5" stroke="currentColor" stroke-width="2.5" stroke-linecap="round" stroke-linejoin="round"></path>
</svg>


<!-- pijltje naar beneede in de nav -->
<svg xmlns="http://www.w3.org/2000/svg" width="31" height="32" viewBox="0 0 31 32" fill="none" class="icon icon-caret">
  <path d="M23.25 14.75L15.5 22.5L7.75 14.75" stroke="currentColor" stroke-width="4.23" stroke-linecap="round" stroke-linejoin="round"></path>
</svg>
